<svg width="166" height="206" viewBox="0 0 166 206" fill="none" xmlns="http://www.w3.org/2000/svg">
<circle cx="93" cy="105" r="36.5" stroke="white" stroke-width="3"/>
<circle cx="79" cy="10" r="8.5" stroke="white" stroke-width="3"/>
<circle cx="105" cy="41" r="17.5" stroke="white" stroke-width="3"/>
<mask id="mask0_117_1854" style="mask-type:alpha" maskUnits="userSpaceOnUse" x="0" y="33" width="79" height="77">
<circle cx="44" cy="63" r="30" fill="#D9D9D9"/>
<circle cx="30" cy="80" r="30" fill="#D9D9D9"/>
<rect x="67" y="63.2901" width="9" height="7" transform="rotate(-36.0003 67 63.2901)" fill="#D9D9D9"/>
<rect x="41" y="107.861" width="9" height="7" transform="rotate(-79.903 41 107.861)" fill="#D9D9D9"/>
</mask>
<g mask="url(#mask0_117_1854)">
<circle cx="49" cy="77" r="28.5" stroke="white" stroke-width="3"/>
</g>
<circle cx="146" cy="87" r="8.5" stroke="white" stroke-width="3"/>
<circle cx="67" cy="163" r="8.5" stroke="white" stroke-width="3"/>
<circle cx="103.5" cy="189.5" r="11" stroke="white" stroke-width="3"/>
<mask id="mask1_117_1854" style="mask-type:alpha" maskUnits="userSpaceOnUse" x="90" y="144" width="68" height="62">
<ellipse cx="126.534" cy="168.666" rx="22.1602" ry="32.5989" transform="rotate(116.758 126.534 168.666)" fill="#D9D9D9"/>
<rect x="118.688" y="188" width="22" height="13" transform="rotate(11.9335 118.688 188)" fill="#D9D9D9"/>
<rect x="90.8018" y="164.452" width="22" height="13" transform="rotate(-15.6181 90.8018 164.452)" fill="#D9D9D9"/>
</mask>
<g mask="url(#mask1_117_1854)">
<circle cx="122.5" cy="173.5" r="24" stroke="white" stroke-width="3"/>
</g>
</svg>
