<svg width="291" height="89" viewBox="0 0 291 89" fill="none" xmlns="http://www.w3.org/2000/svg">
<path d="M8.99971 14.5C27.9995 -4.49974 227.5 4.49998 251 4.49998C274.5 4.49998 292 40 274.5 57.5C257 75 177.999 70.25 177.999 70.25C177.999 70.25 37.9994 98.5006 22.4994 83C6.99934 67.4994 -10.0001 33.4997 8.99971 14.5Z" stroke="white"/>
<path d="M15.0004 14.5C28.5004 14.5 223.001 23.4997 257.001 4.49998C291.001 -14.4997 298 40 280.5 57.5C263 75 184 86.5 184 70.25C184 54 30.5001 98.5006 15.0001 83C-0.499945 67.4994 1.50036 14.5 15.0004 14.5Z" stroke="white"/>
</svg>
